<svg version="1" xmlns="http://www.w3.org/2000/svg" width="933.333" height="933.333" viewBox="0 0 700.000000 700.000000"><path d="M328 .6C251.2 7.3 189.9 31 132.3 76c-13.9 10.9-45.4 42.4-56.3 56.3C34 186.1 10.4 243.7 1.8 314c-1.7 13.7-1.7 58.3 0 72C10.4 456.3 34 513.9 76 567.7c10.9 13.9 42.4 45.4 56.3 56.3 53.8 42 111.4 65.6 181.7 74.2 13.7 1.7 58.3 1.7 72 0 70.3-8.6 127.9-32.2 181.7-74.2 13.9-10.9 45.4-42.4 56.3-56.3 37.2-47.6 61.4-102 70.9-159.2 3.8-22.9 4.6-32.8 4.6-58.5 0-25.7-.8-35.6-4.6-58.5-9.5-57.2-33.7-111.6-70.9-159.2-10.9-13.9-42.4-45.4-56.3-56.3C515 34.8 458.4 11.3 390.5 2.4 379.9 1 337.3-.2 328 .6zm48.5 46.9c31.3 3.1 56.4 8.9 83.7 19.5 25.2 9.7 60 29.4 65.1 36.7 4 5.9 5.4 12.3 3.8 18-2.6 10-10.5 16.5-20.6 17.1-7 .5-7.5.3-29.4-12.6-19.8-11.6-46.8-22.4-69.5-27.7-59.5-13.8-118.9-7.1-173.1 19.5-28 13.7-46.8 27.2-69.1 49.4-45.8 45.8-71 101.7-75.3 166.8-3 44.6 5.8 88.5 25.9 129.3 13.7 28 27.2 46.8 49.4 69.1 45.8 45.8 101.7 71 166.8 75.3 44.6 3 88.5-5.8 129.3-25.9 28-13.7 46.8-27.2 69.1-49.4 22.5-22.6 36.8-42.7 50.5-71.1 9.9-20.6 15.8-38.1 20.4-60.6 3.8-19 5.6-17-15.1-16.7l-17.7.3-2.2 10.5c-5.6 27.2-15.2 50.8-29.7 73.9-17.9 28.3-44.1 54.1-73.1 71.8-65.2 39.8-147.4 43.1-215.8 8.8-36.7-18.5-69-48.4-90.6-83.8-39.8-65.2-43.1-147.4-8.8-215.8 11-21.9 23.9-39.5 42.6-58.1 35.4-35.3 79.9-57 130.1-63.4 16-2 46.8-1.5 61.8 1.1 21.1 3.6 42 10.1 60.8 19 27.5 13.1 34.5 19.5 34.5 31.5 0 11.4-8.3 19.7-20.1 19.9-4.6.1-7.7-1.1-19-7.8-15.9-9.3-35.2-16.6-54.6-20.7-14.8-3.1-42.6-4.3-58.1-2.5-23.8 2.8-50.8 12-71.5 24.4-47.3 28.3-79.5 76.3-87.4 130.8-1.8 12.3-2.1 36.5-.5 48.9 2.8 22.9 12.1 49.8 24.2 70 28.3 47.3 76.3 79.5 130.8 87.4 12.3 1.8 36.5 2.1 48.9.5 22.9-2.8 49.8-12.1 70-24.2 37.6-22.4 67.1-59.3 80.3-100.2 2.8-8.5 5.7-19.6 5.7-21.4 0-.8-6-1.1-21-.9l-21.1.3-3.4 10.2c-25 74.5-106.2 114.3-180.2 88.2-66.2-23.4-105.3-92.1-91.4-160.6 18.7-91.7 119.5-140.2 202.5-97.5 10.7 5.5 14.6 10.4 14.6 18.3 0 11.1-6.6 18-17.4 18.3-4.1.1-6.8-.7-13.9-4.2-17-8.4-29.5-11.3-48.2-11.2-21.5 0-39.4 5.5-57.5 17.5-23.1 15.3-38.7 38.7-44.5 66.9-2.2 10.9-2 29.5.4 41.1 7.3 35.4 34.4 65.9 68.7 77.4 16.6 5.5 37.9 6.8 54.9 3.2 19.4-4 39.8-15.4 53.5-29.8 9-9.3 13.7-16.2 19.5-28.6l4.4-9.2-35.2-.5c-24.2-.4-36-.9-37.9-1.7-1.5-.7-4.5-3-6.7-5.2-10.3-10.3-7.3-27.5 6-34.7 3.3-1.8 8.9-1.9 128.9-2.2 87.9-.2 127 0 130.6.8 6.2 1.3 11.5 5.6 15.4 12.4 2.7 4.5 3 6 3 13.7 0 14.6-3.8 39.8-9.1 59.7-14 53.3-40 98.4-78.9 137.2-25.8 25.8-47.6 41.6-79 57.4-59.1 29.5-122.1 39-187 28-62.5-10.5-117.9-39.2-163-84.4-25.8-25.8-41.6-47.6-57.4-79-29.5-59.1-39-122.1-28-187 10.5-62.5 39.2-117.9 84.4-163 25.8-25.8 47.6-41.6 79-57.4 37.5-18.7 72.2-28.3 116.5-31.9 10.8-.9 32.6-.5 46 .8z"/></svg>