<svg xmlns="http://www.w3.org/2000/svg" viewBox="0 0 480 480" width="480" height="480"><g fill="none"><title>Light</title><title>Background</title><path d="M409.705 70.295c93.727 93.725 93.727 245.685 0 339.41-93.725 93.727-245.685 93.727-339.41 0-93.727-93.725-93.727-245.685 0-339.41 93.725-93.727 245.685-93.727 339.41 0" fill="#57b9a7"/><title>Layer 2</title><path d="M432.61 250.094c-5.574 106.376-96.328 188.092-202.704 182.517-106.376-5.575-188.092-96.33-182.517-202.705C52.964 123.53 143.72 41.814 250.094 47.389a192.875 192.875 0 0 1 97.76 32.71" stroke="#fff" stroke-linecap="round" stroke-linejoin="round" stroke-width="31"/><path d="M378.343 254.54c-8.03 76.405-76.478 131.834-152.883 123.803-76.405-8.03-131.834-76.478-123.803-152.883 8.03-76.405 76.479-131.834 152.883-123.803a139.105 139.105 0 0 1 61.222 21.68" stroke="#fff" stroke-linecap="round" stroke-linejoin="round" stroke-width="28"/><path d="M322.348 257.504c-9.667 45.48-54.372 74.511-99.852 64.844-45.48-9.667-74.511-54.372-64.844-99.852 9.667-45.48 54.372-74.511 99.852-64.844a84.188 84.188 0 0 1 24.59 9.44" stroke="#fff" stroke-linecap="round" stroke-linejoin="round" stroke-width="25"/><g><title>Layer 3</title><path stroke="#fff" stroke-linecap="round" stroke-linejoin="round" stroke-width="30" d="M263.622 248.284h168.376"/></g></g></svg>